<svg width="24" height="24" viewBox="0 0 24 24" xmlns="http://www.w3.org/2000/svg" fill-rule="evenodd" clip-rule="evenodd" stroke-linejoin="round" stroke-miterlimit="1.414">
    <path d="M12.083.985c6.366 0 11.5 5.134 11.5 11.5s-5.134 11.5-11.5 11.5-11.5-5.134-11.5-11.5 5.134-11.5 11.5-11.5zm5.545 15.35l-3.851-3.851 3.902-3.851a.468.468 0 0 0 0-.616l-1.13-1.078c-.102-.103-.205-.155-.308-.155-.102 0-.154.052-.257.155l-3.902 3.799-3.901-3.799c-.103-.103-.155-.155-.257-.155-.103 0-.206.052-.308.155L6.537 8.017c-.154.155-.154.463 0 .616l3.902 3.851-3.902 3.902c-.103.052-.103.154-.103.257 0 .103 0 .206.103.308l1.079 1.13c.102.102.205.102.308.102.102 0 .205 0 .308-.102l3.85-3.902 3.902 3.851c.103.102.155.154.257.154.103 0 .206-.052.308-.154l1.079-1.079c.103-.052.154-.205.154-.308 0-.103-.051-.205-.154-.308z" fill="#f67069" fill-rule="nonzero"/>
</svg>
