<svg width="23" height="24" viewBox="0 0 24 24" xmlns="http://www.w3.org/2000/svg" fill-rule="evenodd" clip-rule="evenodd" stroke-linejoin="round" stroke-miterlimit="1.414">
    <path d="M11.981.469c6.366 0 11.5 5.134 11.5 11.5s-5.134 11.5-11.5 11.5-11.5-5.134-11.5-11.5 5.134-11.5 11.5-11.5zm5.905 7.65c.051-.052.051-.103.051-.155 0-.052 0-.154-.051-.205l-1.592-1.232c-.052-.052-.155-.052-.206-.052-.051 0-.102 0-.154.052l-5.699 7.342-2.311-2.208c-.052-.052-.205-.155-.308-.155-.103 0-.154.103-.205.155l-1.335 1.334c-.052.052-.052.155-.052.206 0 .051 0 .102.052.154l.103.052 4.056 3.902c.052.051.154.154.257.154.103 0 .205-.103.257-.154l7.137-9.19z" fill="#41ff8b" fill-rule="nonzero"/>
</svg>
